# xmcd
#
# Track frame offsets:
#	150
#	11965
#	28545
#	37045
#	47273
#	56608
#	68410
#	81045
#	93113
#	103105
#	113048
#	124588
#	135830
#	146688
#	157850
#	168573
#	180445
#	193273
#	201905
#	211505
#
# Disc length: 2993 seconds
#
# Revision: 4
# Processed by: cddbd v1.5.2PL0 Copyright (c) Steve Scherf et al.
# Submitted via: CDex 1.30Release
#
DISCID=000baf14
DTITLE=Div. - Bluegras Originals
DYEAR=1900
DGENRE=Blues
TTITLE0=Roll in My Sweet Baby's Arms
TTITLE1=Honey, You Don't Know My Mind
TTITLE2=Dreaming
TTITLE3=Willow Garden
TTITLE4=The Girl in the Blue Velvet Band
TTITLE5=I Know You're Married but I Love You Still
TTITLE6=She's Just A Cute Thing
TTITLE7=I Still Write Your Name in the Sand
TTITLE8=Eatin'ut of Your Hand
TTITLE9=Down the Road
TTITLE10=Hard Hearted
TTITLE11=Beatiful Blue Eyes
TTITLE12=Blue Ridge Mountain Blues
TTITLE13=New Freedom Bell
TTITLE14=Windy Mountain
TTITLE15=How Far for Little Rock
TTITLE16=Old Ratler
TTITLE17=Me and the Juke Box
TTITLE18=Truck Drivers Queen
TTITLE19=Log Cabin in the Lane
EXTD=ID3G:   0
EXTT0=Flat and Scruggs
EXTT1=
EXTT2=
EXTT3=
EXTT4=
EXTT5=
EXTT6=
EXTT7=
EXTT8=
EXTT9=Lester Flat
EXTT10=Jim and Jessie
EXTT11=Red Allen
EXTT12=
EXTT13=
EXTT14=
EXTT15=Stanley Brothers
EXTT16=Grandpa Jones
EXTT17=Buzz Busby
EXTT18=Moore and Napler
EXTT19=Jim Eanes
PLAYORDER=
